<?xml version="1.0" encoding="utf-8"?>
<!-- Generator: Adobe Illustrator 25.3.1, SVG Export Plug-In . SVG Version: 6.00 Build 0)  -->
<svg version="1.1" id="Layer_1" xmlns="http://www.w3.org/2000/svg" xmlns:xlink="http://www.w3.org/1999/xlink" x="0px" y="0px"
	 viewBox="0 0 589.29 176.39" style="enable-background:new 0 0 589.29 176.39;" xml:space="preserve">
<style type="text/css">
	.st0{fill:#FFFFFF;}
	.st1{fill:#2A86FF;}
</style>
<g>
	<g>
		<g>
			<path class="st0" d="M98.76,13.89c9.48,4.09,6.54,19.75-3.28,20.98c-9.29-0.3-17.72-6.88-27.65-5.79
				c-34.87-1.67-50.98,34.78-39.81,63.89c8.25,23.68,38.42,30.89,59.68,20.8c12.56-7.55,24.67,13.18,11.24,19.49
				c-32.7,16.51-78.73,4.53-93.12-30.83C-18.81,41.86,39-14.45,98.76,13.89z"/>
			<path class="st0" d="M280.6,119.95c10.46,18.59-22.13,23.01-33.53,14.89c-7.34-4.77-9.86-12.17-9.84-22.2c0,0,0-51.72,0-51.72
				c-7.98,0.56-19.28,0.29-19.12-10.49c-0.27-10.37,11.53-10.69,19.12-10.11c-0.27-9-1.54-23.6,11.42-23.42
				c12.65-0.4,11.29,14.81,11.06,23.42c8.5,0.09,24.01-2.39,23.8,10.49c0.31,12.43-15.7,10.03-23.8,10.11
				c1.56,5.13-3.97,56.42,3.84,57.53C269.3,121.5,275.73,113.96,280.6,119.95z"/>
			<path class="st0" d="M394.25,39.75c-6.78-7.05-20.12-1.63-19.29,8.5c-32.07-28.81-77.5-1.03-75.51,40.41
				c-2.52,40.78,45.42,70.32,75.51,38.79c-0.38,14.79,23.09,14.61,22.47-0.2C396.21,122.54,400.63,40.49,394.25,39.75z
				 M372.42,104.59c-22.03,36.48-64.59,2.93-47.97-32.05C346.46,36.01,389.08,69.72,372.42,104.59z"/>
			<path class="st0" d="M458.32,31.5v8.82c8.52,0.62,28.04-3.67,27.54,10.31c0.5,13.95-19.06,9.69-27.54,10.29v34.49
				c0,7.15-5.03,12.94-11.25,12.94c-6.21,0-11.24-5.79-11.24-12.94V60.92c-7.89,0.37-20.98,0.98-20.6-10.29
				c-0.39-11.28,12.71-10.69,20.6-10.31c-3.38-27.77,17.11-45.08,45.53-39.16c11.69,1.57,12.3,19.98,0.2,20.42
				C471.84,19.27,458.54,17.84,458.32,31.5z"/>
			<path class="st0" d="M589.29,81.38c-1.82,27.5,9.4,78.45-23.79,90.29c-15.68,5.79-43.61,8.49-55.93-5.35
				c-3.27-4.87,0.14-12.97,4.59-15.17c8.94-3.9,16.9,5.65,26.97,4.4c17.52,1.11,27.4-9.73,25.87-27.28
				c-14.38,17.54-49.13,17.12-59.21-5.04c-2.75-5.43-4.12-11.65-4.12-18.64c1.2-5.97-3.17-59.59,3.19-62.87
				c6.64-7.12,19.9-1.88,19.29,8.14c1.63,11.79-4.51,57.06,5.33,65.13c8.37,7.74,27.84,6.92,32.89-5.06
				c3.7-6.22,2.13-21.21,2.44-28.55C566.58,66.8,589.53,66.79,589.29,81.38z"/>
		</g>
		<path class="st0" d="M206.19,139.31c-9.9,0.41-19.32-4.63-24.26-13.25c-5.64-9.78-19.77-9.78-25.41,0
			c-4.73,8.2-13.48,13.25-22.95,13.25c-11.77,0.91-20-11.72-14.02-22.01c0,0,36.97-64.03,36.97-64.03c5.64-9.79,19.77-9.79,25.41,0
			l36.97,64.03C224.55,127.08,217.49,139.31,206.19,139.31z"/>
	</g>
	<path class="st1" d="M589.22,49.55c0.21,14.42-22.43,14.42-22.22,0C566.79,35.14,589.43,35.14,589.22,49.55z"/>
	<path class="st1" d="M458.19,128.81c0.21,14.42-22.43,14.42-22.22,0C435.76,114.4,458.4,114.4,458.19,128.81z"/>
</g>
</svg>
